<?xml version="1.0" encoding="utf-8"?>
<!-- Generator: Adobe Illustrator 23.0.3, SVG Export Plug-In . SVG Version: 6.00 Build 0)  -->
<svg version="1.1" id="Capa_1" xmlns="http://www.w3.org/2000/svg" xmlns:xlink="http://www.w3.org/1999/xlink" x="0px" y="0px"
	 viewBox="0 0 3200 1832.2" style="enable-background:new 0 0 3200 1832.2;" xml:space="preserve">
<style type="text/css">
	.st0{fill:#FFFFFF;}
	.st1{fill:#85E0FF;}
	.st2{fill:#00CBFB;}
</style>
<g>
	<path class="st0" d="M323,1614.4v182.6c0,10.8-3.3,19.1-10,24.9c-6.6,5.8-15.9,8.8-27.7,8.8c-11.3,0-20.3-3.1-26.9-9.1
		c-6.6-6.1-10-14.3-10-24.6V1618c0-29-6-50.3-18.1-63.9c-12.1-13.6-30.9-20.4-56.4-20.4c-30,0-54.1,8.9-72.3,26.7
		c-18.2,17.8-27.3,41.7-27.3,71.7v165.1c0,10.3-3.3,18.5-10,24.6s-15.6,9.1-26.9,9.1c-11.3,0-20.4-3.1-27.3-9.1
		c-6.9-6.1-10.3-14.3-10.3-24.6v-285.9c0-9.8,3.6-17.9,10.7-24.2c7.1-6.3,16.1-9.5,26.9-9.5c10.8,0,19.4,3.1,25.8,9.1
		c6.4,6.1,9.6,14.1,9.6,23.9v28.8c11.8-20.6,28.3-36.3,49.4-47.1c21.1-10.8,45-16.2,71.5-16.2C279.9,1476.1,323,1522.2,323,1614.4"
		/>
	<path class="st0" d="M463,1554c16.4-17.3,38.2-26,65.3-26c26.7,0,47.4,8.5,62.2,25.6c13.6,15.7,21.5,37.7,23.8,65.9
		c0.3,4.1-2.9,7.5-7,7.5H441.5c-4.3,0-7.6-3.8-6.9-8.1C438.6,1591.5,448.1,1569.8,463,1554 M996.4,1486.6
		c-6.3-6.1-15.1-9.1-26.3-9.1c-10.8,0-19.3,3.1-25.6,9.1c-6.3,6.1-9.5,14.5-9.5,25.3v181.9c0,27.6-5.6,48-16.9,61.1
		c-11.2,13.1-28.6,19.7-52,19.7c-23.4,0-40.7-6.6-52-19.7c-11.2-13.1-16.9-33.5-16.9-61.1v-181.9c0-10.8-3.2-19.2-9.5-25.3
		c-6.3-6.1-14.9-9.1-25.6-9.1c-11.2,0-20,3.1-26.3,9.1c-6.3,6.1-9.5,14.5-9.5,25.3v161.3c0,1.3-0.4,2.6-1.1,3.8
		c-17.6,27.4-59.6,71.3-142,92.7c-13.1,3.4-27.6,7-45,7c-62.7,0-97.4-33.7-104-101.1c-0.4-4.2,2.8-7.8,7-7.8h209.5
		c16.9,0,25.3-9.4,25.3-28.1c0-50.1-13.3-89.9-40-119.4s-63-44.3-108.9-44.3c-31.9,0-60.3,7.5-85.4,22.5
		c-25.1,15-44.5,36.1-58.3,63.2c-13.8,27.2-20.7,58.3-20.7,93.4c0,54.8,15.7,98,47.1,129.6c31.4,31.6,74.2,47.4,128.6,47.4
		c17.8,0,37.7-2.7,55.8-7.7c61.1-17,106.8-46,131-71.3c3.6-3.7,9.7-2.5,11.6,2.3c20,51.1,67.2,76.7,129.4,76.7
		c83.3-0.1,139.8-45.9,139.8-137.7v-182.7C1005.8,1501.1,1002.7,1492.7,996.4,1486.6"/>
	<path class="st0" d="M866.2,1832.2c0,0-0.1,0-0.1,0c0,0-0.1,0-0.1,0H866.2z"/>
	<path class="st0" d="M1308.6,1542.1c10.3-20.1,25.5-36.2,45.7-48.1c20.1-11.9,43.1-17.9,68.8-17.9c76.8,0,139.8,46.1,139.8,138.4
		v182.7c0,10.8-3.3,19.1-9.8,24.9c-6.6,5.8-15.2,8.8-26,8.8c-10.3,0-18.7-2.9-25.3-8.8c-6.6-5.8-9.8-14.2-9.8-24.9v-181.9
		c0-28.6-5.2-49.3-15.5-62.2c-10.3-12.9-26.5-19.3-48.5-19.3c-25.8,0-46.1,8.8-61.1,26.3c-15,17.6-22.5,41.6-22.5,72v165.1
		c0,10.8-3.3,19.1-9.8,24.9c-6.6,5.8-15.2,8.8-26,8.8s-19.4-2.9-26-8.8c-6.5-5.8-9.8-14.2-9.8-24.9V1632c0-30.4-7.5-54.4-22.5-72
		c-15-17.6-35.4-26.3-61.1-26.3c-22,0-38.2,6.4-48.5,19.3c-10.3,12.9-15.5,33.6-15.5,62.2v181.9c0,10.8-3.3,19.1-9.8,24.9
		c-6.5,5.8-15,8.8-25.3,8.8c-10.8,0-19.4-2.9-26-8.8c-6.6-5.8-9.8-14.2-9.8-24.9v-182.7c0-92.3,63-138.4,139.8-138.4
		c25.8,0,48.7,6,68.8,17.9C1283,1505.9,1298.3,1522,1308.6,1542.1"/>
	<path class="st0" d="M2238.7,1542.1c10.3-20.1,25.5-36.2,45.7-48.1c20.1-11.9,43.1-17.9,68.8-17.9c76.8,0,139.8,46.1,139.8,138.4
		v182.7c0,10.8-3.3,19.1-9.8,24.9c-6.6,5.8-15.2,8.8-26,8.8c-10.3,0-18.7-2.9-25.3-8.8c-6.6-5.8-9.8-14.2-9.8-24.9v-181.9
		c0-28.6-5.2-49.3-15.5-62.2c-10.3-12.9-26.5-19.3-48.5-19.3c-25.8,0-46.1,8.8-61.1,26.3c-15,17.6-22.5,41.6-22.5,72v165.1
		c0,10.8-3.3,19.1-9.8,24.9c-6.6,5.8-15.2,8.8-26,8.8c-10.8,0-19.4-2.9-26-8.8c-6.5-5.8-9.8-14.2-9.8-24.9V1632
		c0-30.4-7.5-54.4-22.5-72c-15-17.6-35.4-26.3-61.1-26.3c-22,0-38.2,6.4-48.5,19.3c-10.3,12.9-15.5,33.6-15.5,62.2v181.9
		c0,10.8-3.3,19.1-9.8,24.9c-6.5,5.8-15,8.8-25.3,8.8c-10.8,0-19.4-2.9-26-8.8c-6.6-5.8-9.8-14.2-9.8-24.9v-182.7
		c0-92.3,63-138.4,139.8-138.4c25.8,0,48.7,6,68.8,17.9C2213.2,1505.9,2228.4,1522,2238.7,1542.1"/>
	<path class="st0" d="M1845.7,1745.1c16.6-20.6,24.9-50.8,24.9-90.6c0-39.3-8.4-69.4-25.3-90.3c-16.9-20.8-40.7-31.3-71.7-31.3
		c-30.9,0-54.8,10.4-71.7,31.3c-16.9,20.8-25.3,50.9-25.3,90.3c0,39.8,8.3,70,24.9,90.6c16.6,20.6,40.6,30.9,72,30.9
		C1805,1776,1829,1765.7,1845.7,1745.1 M1684.8,1810.4c-25.5-14.5-45.2-35.2-59-62.2c-13.8-26.9-20.7-58.2-20.7-93.8
		c0-36.1,6.9-67.6,20.7-94.5c13.8-26.9,33.5-47.7,59-62.2c25.5-14.5,55.1-21.8,88.9-21.8c33.7,0,63.3,7.3,88.9,21.8
		c25.5,14.5,45.2,35.2,59,62.2c13.8,26.9,20.7,58.4,20.7,94.5c0,35.6-6.9,66.9-20.7,93.8c-13.8,26.9-33.5,47.7-59,62.2
		c-25.5,14.5-55.1,21.8-88.9,21.8C1739.9,1832.2,1710.3,1825,1684.8,1810.4"/>
	<path class="st0" d="M2623.8,1554c-15,15.8-24.5,37.5-28.5,64.9c-0.6,4.3,2.6,8.1,6.9,8.1h165.8c4.1,0,7.3-3.5,7-7.5
		c-2.3-28.2-10.2-50.1-23.8-65.9c-14.8-17.1-35.5-25.6-62.2-25.6C2662,1528,2640.2,1536.7,2623.8,1554 M2827.6,1748.6
		c4.2,5.2,6.3,11.7,6.3,19.7c0,13.6-8.4,25.1-25.3,34.4c-16.4,9.4-34.3,16.6-53.7,21.8c-19.4,5.2-38.1,7.7-55.8,7.7
		c-54.3,0-97.2-15.8-128.6-47.4c-31.4-31.6-47.1-74.8-47.1-129.6c0-35.1,6.9-66.3,20.7-93.4c13.8-27.2,33.2-48.2,58.3-63.2
		c25.1-15,53.5-22.5,85.4-22.5c45.9,0,82.2,14.8,108.9,44.3c26.7,29.5,40,69.3,40,119.4c0,18.7-8.4,28.1-25.3,28.1H2602
		c-4.2,0-7.4,3.6-7,7.8c6.6,67.4,41.3,101.1,104,101.1c17.3,0,32.3-2.3,45-7c12.6-4.6,25.8-10.7,39.8-18.1c0.2-0.1,0.3-0.2,0.5-0.3
		c1.6-1,5.4-2.9,11.4-5.8c6.3-3,11.6-4.6,15.8-4.6C2818,1740.9,2823.3,1743.5,2827.6,1748.6"/>
	<path class="st0" d="M2961.9,1743.3c-17.3-21.8-26-51.9-26-90.3c0-38.4,8.5-68,25.6-88.9c17.1-20.8,41.1-31.3,72-31.3
		c30.9,0,54.7,10.5,71.3,31.6c16.6,21.1,24.9,51.1,24.9,89.9c0,38.9-8.4,68.8-25.3,89.9c-16.9,21.1-40.5,31.6-71,31.6
		C3003.1,1776,2979.2,1765.1,2961.9,1743.3 M3190.2,1337.7c-6.6-6.1-15.2-9.1-26-9.1c-10.8,0-19.3,2.9-25.6,8.8
		c-6.3,5.9-9.5,13.7-9.5,23.5v178.4c-10.3-20.1-25.2-35.7-44.6-46.7c-19.4-11-42-16.5-67.8-16.5c-30,0-56.4,7.3-79.4,21.8
		c-22.9,14.5-40.9,35.1-53.7,61.8c-12.9,26.7-19.3,57.8-19.3,93.4c0,35.1,6.4,66.3,19.3,93.4c12.9,27.2,30.9,48.2,54.1,63.2
		c23.1,15,49.4,22.4,78.9,22.5h32.7l0,0c28.8-0.3,54.6-7.7,77.4-22.4c23.2-15,41.2-36.1,54.1-63.2c12.9-27.2,19.3-58.3,19.3-93.4
		v-290.8C3200,1352,3196.7,1343.8,3190.2,1337.7"/>
</g>
<g>
	<path class="st1" d="M1443.9,378.7L1600,222.1l156.2,156.7l0,0c-34.5,34.8-37.3,91.6-6.8,129.3c32,39.8,87.4,49.2,129.9,22.1
		c18.1-11.5,29.7-28.1,39.5-46.9c21-40,54.7-61,100.1-59.9c17,0.4,34.1,4.3,50.8,8.3c278.8,67,467.9,320.7,452.6,607
		c-0.5,9.4-0.9,19.2-3.5,28.1c-5.8,20-19.7,32.3-40.4,35.3c-22.8,3.4-40.7-6.6-52.7-27.4c-90.2-156.4-222.9-254.8-400-292.3
		c-33.8-7.2-67.6-11-102.4-3.9c-71.6,14.7-133.1,82.3-139.3,155.2c-1.4,15.9-1.1,32-3.4,47.7c-13.3,91.4-92.3,155.5-180.6,155.4
		c-88.3,0.1-167.2-64-180.6-155.4c-2.3-15.7-2-31.8-3.4-47.7c-6.2-72.9-67.7-140.5-139.3-155.2c-34.7-7.1-68.6-3.3-102.4,3.9
		c-177.1,37.5-309.8,135.9-400,292.3c-12,20.9-29.9,30.8-52.7,27.4c-20.7-3.1-34.6-15.4-40.4-35.3c-2.6-9-3-18.7-3.5-28.1
		c-15.3-286.3,173.8-540,452.6-607c16.7-4,33.8-7.9,50.8-8.3c45.4-1.1,79,19.8,100.1,59.9c9.8,18.7,21.4,35.4,39.5,46.9
		c42.6,27.1,97.9,17.7,129.9-22.1C1481.1,470.3,1478.4,413.5,1443.9,378.7z"/>
	<g>
		<path class="st2" d="M1254,683.1c10-18.5,30.4-57.3,36.2-112.6c3.1-29.5,1.2-55.2-1.9-74.9c-2.5-4-4.8-8.1-7-12.4
			c-21-40-54.7-61-100.1-59.9c-17,0.4-34.1,4.3-50.8,8.3c-278.8,67-467.9,320.7-452.6,607c0.5,9.4,0.9,19.2,3.5,28.1
			c5.8,20,19.7,32.3,40.4,35.3c22.8,3.4,40.7-6.6,52.7-27.4c89.7-155.4,221.3-253.6,396.8-291.6
			C1196.3,762.6,1228.6,730.2,1254,683.1z"/>
	</g>
	<g>
		<path class="st2" d="M1946,683.1c-10-18.5-30.4-57.3-36.2-112.6c-3.1-29.5-1.2-55.2,1.9-74.9c2.5-4,4.8-8.1,7-12.4
			c21-40,54.7-61,100.1-59.9c17,0.4,34.1,4.3,50.8,8.3c278.8,67,467.9,320.7,452.6,607c-0.5,9.4-0.9,19.2-3.5,28.1
			c-5.8,20-19.7,32.3-40.4,35.3c-22.8,3.4-40.7-6.6-52.7-27.4c-89.7-155.4-221.3-253.6-396.8-291.6
			C2003.7,762.6,1971.4,730.2,1946,683.1z"/>
	</g>
	<g>
		<path class="st2" d="M1821.6,221.6c0,61.4-25,117-65.4,157.2c-40.1,39.8-95.2,64.4-156.2,64.4c-122.4,0-221.6-99.2-221.6-221.6
			S1477.6,0,1600,0S1821.6,99.2,1821.6,221.6z"/>
		<g>
			
				<ellipse transform="matrix(0.7071 -0.7071 0.7071 0.7071 351.1342 1212.4843)" class="st1" cx="1639.2" cy="182.4" rx="166.2" ry="214.6"/>
		</g>
	</g>
</g>
</svg>
