<svg xmlns="http://www.w3.org/2000/svg" width="500" height="286.2837" viewBox="0 0 500 286.2837"><defs><style>.a{fill:#878787;}.b{fill:#cfcfcf;}.c{fill:#85e0ff;}.d{fill:#00cbfb;}</style></defs><title>LNM</title><path class="a" d="M50.4634,252.257v28.5381a4.921,4.921,0,0,1-1.5552,3.8972,6.3146,6.3146,0,0,1-4.3207,1.3721,5.9835,5.9835,0,0,1-4.2057-1.4268,4.9584,4.9584,0,0,1-1.5552-3.8425V252.8057q0-6.8043-2.823-9.988-2.8246-3.1823-8.8138-3.1833-7.0287,0-11.2909,4.171-4.2631,4.1726-4.2621,11.1958v25.7939a4.9591,4.9591,0,0,1-1.5563,3.8425,5.9843,5.9843,0,0,1-4.2046,1.4268,6.2,6.2,0,0,1-4.2632-1.4268A4.8679,4.8679,0,0,1,0,280.7951V236.1215a4.8327,4.8327,0,0,1,1.67-3.7867,6.1016,6.1016,0,0,1,4.2057-1.4816A5.6117,5.6117,0,0,1,9.9081,232.28a4.9248,4.9248,0,0,1,1.4977,3.7319v4.5006a18.2855,18.2855,0,0,1,7.72-7.3543,24.266,24.266,0,0,1,11.1759-2.5241q20.16,0,20.1622,21.6228"/><path class="a" d="M72.3468,242.8178a13.3938,13.3938,0,0,1,10.2081-4.0615q6.2565,0,9.7141,4.0067,3.1792,3.6858,3.7137,10.2922a1.096,1.096,0,0,1-1.0952,1.1774H68.98a1.1011,1.1011,0,0,1-1.0851-1.2666,18.1816,18.1816,0,0,1,4.4519-10.1482M155.68,232.28a5.6929,5.6929,0,0,0-4.1163-1.4269,5.5361,5.5361,0,0,0-4.0057,1.4269,5.2259,5.2259,0,0,0-1.4827,3.9509v28.43q0,6.4771-2.6336,9.5489-2.6346,3.0742-8.123,3.0737t-8.122-3.0737q-2.6347-3.0713-2.6347-9.5489v-28.43a5.23,5.23,0,0,0-1.4816-3.9509,5.5386,5.5386,0,0,0-4.0068-1.4269,5.6957,5.6957,0,0,0-4.1162,1.4269,5.2291,5.2291,0,0,0-1.4816,3.9509v25.2078a1.09,1.09,0,0,1-.1724.59c-2.7544,4.2876-9.3134,11.141-22.1875,14.4855a26.8923,26.8923,0,0,1-7.0247,1.0973q-14.7036,0-16.2562-15.7988a1.1,1.1,0,0,1,1.0911-1.2139h32.7274q3.9506,0,3.951-4.3911,0-11.7434-6.2561-18.66t-17.0137-6.9153a25.4824,25.4824,0,0,0-13.3366,3.5129,23.8076,23.8076,0,0,0-9.11,9.8785A31.7614,31.7614,0,0,0,56.65,258.6237q0,12.8417,7.3544,20.2508,7.3518,7.41,20.0865,7.4091a33.5518,33.5518,0,0,0,8.7264-1.2078c9.5458-2.653,16.6889-7.183,20.4726-11.136a1.0966,1.0966,0,0,1,1.8162.361c3.1215,7.9831,10.5012,11.9767,20.2123,11.9828,13.0151-.0082,21.8429-7.1779,21.8429-21.5134V236.2311A5.23,5.23,0,0,0,155.68,232.28"/><path class="a" d="M135.34,286.2837h0Z"/><path class="a" d="M204.4638,240.9515a18.3055,18.3055,0,0,1,7.1343-7.5186,20.68,20.68,0,0,1,10.7566-2.7989c12.001,0,21.843,7.2083,21.843,21.6228v28.5391a4.95,4.95,0,0,1-1.5364,3.8962,5.8778,5.8778,0,0,1-4.0615,1.3721,5.71,5.71,0,0,1-3.951-1.3721,4.9424,4.9424,0,0,1-1.5364-3.8962V252.3674q0-6.6946-2.4156-9.7142-2.4156-3.018-7.5734-3.019a11.8956,11.8956,0,0,0-9.5488,4.1163q-3.5154,4.1162-3.5129,11.2505v25.7949a4.9525,4.9525,0,0,1-1.5364,3.8962,6.6972,6.6972,0,0,1-8.123,0,4.9528,4.9528,0,0,1-1.5364-3.8962V255.001q0-7.1328-3.5129-11.2505a11.8956,11.8956,0,0,0-9.5488-4.1163q-5.1584,0-7.5734,3.019t-2.4156,9.7142v28.4285a4.9458,4.9458,0,0,1-1.5364,3.8962,5.71,5.71,0,0,1-3.951,1.3721,5.8778,5.8778,0,0,1-4.0615-1.3721,4.9494,4.9494,0,0,1-1.5363-3.8962V252.2568c0-14.4145,9.8419-21.6228,21.8429-21.6228a20.68,20.68,0,0,1,10.7566,2.7989,18.3055,18.3055,0,0,1,7.1343,7.5186"/><path class="b" d="M349.7948,240.9515a18.3055,18.3055,0,0,1,7.1343-7.5186,20.68,20.68,0,0,1,10.7567-2.7989c12.0009,0,21.8429,7.2083,21.8429,21.6228v28.5391a4.9491,4.9491,0,0,1-1.5364,3.8962,5.8776,5.8776,0,0,1-4.0615,1.3721,5.71,5.71,0,0,1-3.951-1.3721,4.9461,4.9461,0,0,1-1.5363-3.8962V252.3674q0-6.6946-2.4157-9.7142-2.4156-3.018-7.5733-3.019a11.896,11.896,0,0,0-9.5489,4.1163q-3.5154,4.1162-3.5129,11.2505v25.7949a4.9525,4.9525,0,0,1-1.5364,3.8962,6.6972,6.6972,0,0,1-8.123,0,4.9528,4.9528,0,0,1-1.5364-3.8962V255.001q0-7.1328-3.5128-11.2505a11.896,11.896,0,0,0-9.5489-4.1163q-5.1583,0-7.5734,3.019t-2.4156,9.7142v28.4285a4.9424,4.9424,0,0,1-1.5364,3.8962,5.71,5.71,0,0,1-3.9509,1.3721,5.878,5.878,0,0,1-4.0616-1.3721,4.9494,4.9494,0,0,1-1.5363-3.8962V252.2568c0-14.4145,9.8419-21.6228,21.8429-21.6228a20.68,20.68,0,0,1,10.7567,2.7989,18.3052,18.3052,0,0,1,7.1342,7.5186"/><path class="a" d="M288.3834,272.673q3.8941-4.8282,3.8962-14.159,0-9.2214-3.951-14.1053t-11.1958-4.8839q-7.2453,0-11.1958,4.8839-3.9519,4.8859-3.952,14.1053,0,9.3308,3.8973,14.159,3.8942,4.8312,11.25,4.8292,7.3518,0,11.2506-4.8292m-25.1358,10.208a22.9381,22.9381,0,0,1-9.22-9.7141,35.0234,35.0234,0,0,1,0-29.4163,22.95,22.95,0,0,1,9.22-9.7142,30.0347,30.0347,0,0,1,27.77,0,22.9653,22.9653,0,0,1,9.2193,9.7142,35.0224,35.0224,0,0,1,0,29.4163,22.9537,22.9537,0,0,1-9.2193,9.7141,30.034,30.034,0,0,1-27.77,0"/><path class="b" d="M409.9755,242.8178a18.181,18.181,0,0,0-4.452,10.1482,1.1006,1.1006,0,0,0,1.0851,1.2666h25.9075a1.0946,1.0946,0,0,0,1.0942-1.1774q-.534-6.608-3.7137-10.2922-3.4577-4.0067-9.7131-4.0067a13.3935,13.3935,0,0,0-10.208,4.0615m31.8309,30.404a4.7021,4.7021,0,0,1,.9877,3.0738q0,3.1837-3.951,5.3778a34.8016,34.8016,0,0,1-8.3968,3.4024,34.054,34.054,0,0,1-8.7264,1.2078q-12.7353,0-20.0865-7.4091-7.3548-7.4081-7.3544-20.2508a31.7614,31.7614,0,0,1,3.2381-14.5991,23.8007,23.8007,0,0,1,9.11-9.8785,25.4818,25.4818,0,0,1,13.3365-3.5129q10.7562,0,17.0137,6.9153t6.2561,18.66q0,4.3915-3.951,4.3911H406.5548a1.1,1.1,0,0,0-1.0911,1.2139q1.5516,15.8,16.2562,15.7988a20.2242,20.2242,0,0,0,7.0247-1.0973,50.8183,50.8183,0,0,0,6.2165-2.8324c.0263-.0142.0507-.0284.075-.0446q.3681-.2312,1.7757-.91a5.995,5.995,0,0,1,2.47-.714,3.1214,3.1214,0,0,1,2.5242,1.2078"/><path class="b" d="M462.79,272.3984q-4.0616-5.1036-4.06-14.1043t4.0057-13.8852q4.0051-4.8829,11.25-4.8839t11.1411,4.9387q3.8956,4.9392,3.8972,14.0495,0,9.1133-3.952,14.0505-3.95,4.9392-11.0863,4.9387a13.5162,13.5162,0,0,1-11.1957-5.104m35.6733-63.388a5.7379,5.7379,0,0,0-4.0615-1.4269,5.6624,5.6624,0,0,0-4.0057,1.3721,4.7712,4.7712,0,0,0-1.4827,3.6772v27.88a17.2246,17.2246,0,0,0-6.9689-7.3,21.1458,21.1458,0,0,0-10.5924-2.58,22.1592,22.1592,0,0,0-20.8,13.0627,33.2313,33.2313,0,0,0-3.018,14.5981,33.6761,33.6761,0,0,0,3.018,14.5981,23.3438,23.3438,0,0,0,8.4516,9.88,22.2387,22.2387,0,0,0,12.3265,3.5119h5.106l.0021-.0041a22.1769,22.1769,0,0,0,12.0922-3.5078,23.3507,23.3507,0,0,0,8.4516-9.88A33.6761,33.6761,0,0,0,500,258.2941V212.8518a4.9923,4.9923,0,0,0-1.5364-3.8414"/><path class="c" d="M225.6035,59.1727,250,34.6967l24.3988,24.4778-.0023-.0018a15.3505,15.3505,0,0,0,19.2317,23.6665A18.1656,18.1656,0,0,0,299.8,75.5174c3.2884-6.2537,8.5429-9.5318,15.6394-9.3548a38.5883,38.5883,0,0,1,7.9385,1.3013A92.132,92.132,0,0,1,394.1,162.3111a19.4933,19.4933,0,0,1-.546,4.3951,7.32,7.32,0,0,1-6.3111,5.52c-3.565.526-6.357-1.024-8.2387-4.2854-14.0992-24.4363-34.8359-39.8086-62.5014-45.6683-5.2811-1.1186-10.5655-1.7182-15.9923-.6058-11.1892,2.2938-20.8,12.855-21.77,24.2451-.2115,2.4839-.171,4.9993-.53,7.4589a28.529,28.529,0,0,1-56.4224,0c-.3586-2.46-.3181-4.975-.53-7.4589-.97-11.39-10.5809-21.9513-21.77-24.2451-5.4268-1.1124-10.7112-.5128-15.9923.6058-27.6655,5.86-48.4022,21.232-62.5014,45.6683-1.8817,3.2614-4.6737,4.8114-8.2387,4.2854a7.32,7.32,0,0,1-6.3111-5.52,19.4933,19.4933,0,0,1-.546-4.3951,92.132,92.132,0,0,1,70.7229-94.8472,38.5883,38.5883,0,0,1,7.9385-1.3013c7.0965-.177,12.351,3.1011,15.6394,9.3548a18.1656,18.1656,0,0,0,6.1714,7.3218,15.3505,15.3505,0,0,0,19.2317-23.6665Z"/><path class="d" d="M195.939,106.7347a46.24,46.24,0,0,0,5.6566-17.5869,45.0449,45.0449,0,0,0-.2982-11.6985c-.3849-.624-.7484-1.2691-1.097-1.9319-3.2884-6.2538-8.5429-9.5319-15.6394-9.3549a38.5884,38.5884,0,0,0-7.9385,1.3014A92.132,92.132,0,0,0,105.9,162.3111a19.4924,19.4924,0,0,0,.546,4.395,7.32,7.32,0,0,0,6.3111,5.52c3.565.5261,6.357-1.024,8.2387-4.2853,14.0125-24.2861,34.5825-39.6177,61.9933-45.5576A52.3288,52.3288,0,0,0,195.939,106.7347Z"/><path class="d" d="M304.061,106.7347a46.24,46.24,0,0,1-5.6566-17.5869,45.0449,45.0449,0,0,1,.2982-11.6985c.3849-.624.7484-1.2691,1.097-1.9319,3.2884-6.2538,8.5429-9.5319,15.6394-9.3549a38.5884,38.5884,0,0,1,7.9385,1.3014A92.132,92.132,0,0,1,394.1,162.3111a19.4924,19.4924,0,0,1-.546,4.395,7.32,7.32,0,0,1-6.3111,5.52c-3.565.5261-6.357-1.024-8.2387-4.2853-14.0125-24.2861-34.5825-39.6177-61.9933-45.5576A52.3288,52.3288,0,0,1,304.061,106.7347Z"/><path class="d" d="M284.6173,34.6173A34.6173,34.6173,0,1,1,250,0,34.51,34.51,0,0,1,284.6173,34.6173Z"/><ellipse class="c" cx="256.1195" cy="28.4977" rx="25.963" ry="33.5267" transform="translate(54.8643 189.4501) rotate(-44.9998)"/></svg>